<?xml version="1.0" standalone="no"?>
<!DOCTYPE svg PUBLIC "-//W3C//DTD SVG 20010904//EN"
 "http://www.w3.org/TR/2001/REC-SVG-20010904/DTD/svg10.dtd">
<svg version="1.0" xmlns="http://www.w3.org/2000/svg"
 width="306.000000pt" height="306.000000pt" viewBox="0 0 306.000000 306.000000"
 preserveAspectRatio="xMidYMid meet">
<metadata>
Created by potrace 1.14, written by Peter Selinger 2001-2017
</metadata>
<g transform="translate(0.000000,306.000000) scale(0.100000,-0.100000)"
fill="#000000" stroke="none">
<path d="M769 3056 c-2 -2 -38 -6 -79 -10 -41 -3 -84 -8 -95 -10 -11 -2 -42
-7 -69 -10 -93 -13 -301 -57 -414 -88 l-113 -31 6 -61 c9 -83 14 -114 41 -256
40 -205 131 -468 230 -660 95 -186 179 -303 316 -440 207 -207 446 -323 793
-385 152 -27 613 -28 740 -1 11 2 43 7 70 10 82 11 338 65 427 91 45 13 84 22
87 19 2 -2 0 -14 -6 -27 -6 -12 -18 -40 -28 -62 -9 -22 -20 -49 -25 -60 -5
-11 -38 -94 -75 -185 -37 -91 -73 -178 -80 -195 -8 -16 -35 -82 -62 -145 -45
-110 -48 -119 -48 -210 0 -81 4 -102 24 -140 42 -81 87 -127 161 -163 60 -31
79 -35 141 -35 148 1 258 69 318 198 22 47 26 69 26 145 l-1 90 -167 403
c-102 246 -169 421 -172 449 -40 394 -188 824 -381 1114 -103 154 -188 246
-340 369 -82 66 -266 160 -389 199 -38 12 -84 26 -102 32 -18 5 -40 11 -50 13
-60 11 -92 16 -123 21 -19 3 -51 8 -70 11 -37 7 -485 15 -491 10z"/>
</g>
</svg>
