<?xml version="1.0" encoding="UTF-8"?>
<svg xmlns="http://www.w3.org/2000/svg" xmlns:xlink="http://www.w3.org/1999/xlink" viewBox="0 0 24 24" width="24px" height="24px">
<g id="surface1025064">
<path style=" stroke:none;fill-rule:nonzero;fill:rgb(15.294118%,68.235296%,37.64706%);fill-opacity:1;" d="M 12 24 C 5.371094 24 0 18.628906 0 12 C 0 5.371094 5.371094 0 12 0 C 18.628906 0 24 5.371094 24 12 C 24 18.628906 18.628906 24 12 24 Z M 12 24 "/>
<path style=" stroke:none;fill-rule:nonzero;fill:rgb(0%,0%,0%);fill-opacity:1;" d="M 4.289062 6 C 3.976562 5.996094 3.691406 6.160156 3.535156 6.425781 C 3.378906 6.691406 3.378906 7.023438 3.535156 7.289062 C 3.691406 7.558594 3.976562 7.71875 4.289062 7.714844 L 19.710938 7.714844 C 20.023438 7.71875 20.308594 7.558594 20.464844 7.289062 C 20.621094 7.023438 20.621094 6.691406 20.464844 6.425781 C 20.308594 6.160156 20.023438 5.996094 19.710938 6 Z M 4.289062 11.144531 C 3.976562 11.140625 3.691406 11.300781 3.535156 11.566406 C 3.378906 11.835938 3.378906 12.164062 3.535156 12.433594 C 3.691406 12.699219 3.976562 12.859375 4.289062 12.855469 L 19.710938 12.855469 C 20.023438 12.859375 20.308594 12.699219 20.464844 12.433594 C 20.621094 12.164062 20.621094 11.835938 20.464844 11.566406 C 20.308594 11.300781 20.023438 11.140625 19.710938 11.144531 Z M 4.289062 16.285156 C 3.976562 16.28125 3.691406 16.441406 3.535156 16.710938 C 3.378906 16.976562 3.378906 17.308594 3.535156 17.574219 C 3.691406 17.839844 3.976562 18.003906 4.289062 18 L 19.710938 18 C 20.023438 18.003906 20.308594 17.839844 20.464844 17.574219 C 20.621094 17.308594 20.621094 16.976562 20.464844 16.710938 C 20.308594 16.441406 20.023438 16.28125 19.710938 16.285156 Z M 4.289062 16.285156 "/>
</g>
</svg>
